<?xml version="1.0" standalone="no"?>
<!DOCTYPE svg PUBLIC "-//W3C//DTD SVG 20010904//EN"
 "http://www.w3.org/TR/2001/REC-SVG-20010904/DTD/svg10.dtd">
<svg version="1.0" xmlns="http://www.w3.org/2000/svg"
 width="512.000000pt" height="512.000000pt" viewBox="0 0 512.000000 512.000000"
 preserveAspectRatio="xMidYMid meet">
<metadata>
Created by potrace 1.11, written by Peter Selinger 2001-2013
</metadata>
<g transform="translate(0.000000,512.000000) scale(0.100000,-0.100000)"
fill="#000000" stroke="none">
<path d="M397 5104 c-99 -24 -167 -62 -243 -138 -77 -78 -114 -144 -139 -248
-22 -95 -22 -4221 0 -4316 41 -174 161 -310 331 -374 l59 -23 2155 0 2155 0
59 23 c154 58 270 178 322 332 18 53 19 134 19 2205 l0 2150 -27 68 c-68 169
-197 281 -370 322 -92 22 -4231 21 -4321 -1z m3288 -883 c360 -7 368 -8 381
-75 5 -28 -2 -53 -34 -123 -22 -48 -48 -109 -57 -135 -25 -67 -76 -123 -133
-145 -44 -17 -84 -18 -613 -15 l-565 4 -23 -119 c-23 -114 -100 -408 -160
-603 l-28 -95 191 -6 c105 -4 286 -7 403 -8 116 0 223 -5 236 -10 15 -6 29
-23 36 -44 10 -29 6 -51 -28 -171 -46 -157 -63 -192 -110 -220 -33 -19 -38
-19 -427 -2 -216 10 -401 15 -412 12 -14 -5 -28 -45 -66 -199 -104 -418 -162
-754 -172 -1007 -7 -180 -15 -211 -65 -265 -68 -74 -207 -115 -389 -115 -163
0 -182 20 -201 208 -29 273 23 685 145 1162 19 74 34 136 33 137 -2 1 -32 -2
-67 -7 -36 -5 -132 -14 -214 -20 -132 -10 -151 -9 -173 5 -21 14 -24 23 -20
50 10 59 37 103 103 164 85 80 171 126 339 183 l140 47 18 53 c9 29 55 168
101 308 46 140 103 302 126 360 23 58 50 125 60 150 l18 46 -83 -8 c-178 -17
-366 -84 -506 -179 -35 -24 -102 -80 -149 -124 -111 -106 -137 -125 -170 -125
-43 0 -74 46 -91 134 -14 77 3 175 47 263 135 278 613 492 1214 542 101 9 695
5 1365 -8z"/>
</g>
</svg>
